# xmcd CD database file
#
# Track frame offsets:
#	150
#	16697
#	36326
#	53484
#	75867
#	91315
#	105317
#	130939
#	160088
#	180848
#	198460
#
# Disc length: 2943 seconds
#
# Revision: 0
# Processed by: cddbd v1.5.2PL0 Copyright (c) Steve Scherf et al.
# Submitted via: CDex 1.51
#
DISCID=6f0b7d0b
DTITLE=Simon Kinny-Lewis Band - Bad Whiskey
DYEAR=2018
DGENRE=Blues
TTITLE0=Bad Bad Whiskey
TTITLE1=Prison Of Love
TTITLE2=Angel Like You
TTITLE3=Midnight Comes To Soon
TTITLE4=If You Go
TTITLE5=Caged Up
TTITLE6=Straight Talker
TTITLE7=Beyond Missouri Skies
TTITLE8=New Orleans Woman
TTITLE9=Goodbye Baby
TTITLE10=Down In Mississippi
EXTD=YEAR: 2018
EXTT0=
EXTT1=
EXTT2=
EXTT3=
EXTT4=
EXTT5=
EXTT6=
EXTT7=
EXTT8=
EXTT9=
EXTT10=
PLAYORDER=
